<?xml version="1.0" encoding="utf-8"?>
<!-- Generator: Adobe Illustrator 27.2.0, SVG Export Plug-In . SVG Version: 6.00 Build 0)  -->
<svg version="1.1" xmlns="http://www.w3.org/2000/svg" xmlns:xlink="http://www.w3.org/1999/xlink" x="0px" y="0px"
	 viewBox="0 0 764.2 590" style="enable-background:new 0 0 764.2 590;" xml:space="preserve">
<style type="text/css">
	.st0{display:none;}
	.st1{fill:#EAF5F0;}
	.st2{fill:#F6F086;stroke:#F6F086;stroke-width:4;stroke-miterlimit:10;}
	.st3{fill:none;stroke:#A7A9AC;stroke-width:6;stroke-miterlimit:10;}
	.st4{fill:none;stroke:#808285;stroke-width:6;stroke-miterlimit:10;}
	.st5{fill:none;stroke:#44C8F5;stroke-width:10;stroke-miterlimit:10;}
	.st6{fill:#39B54A;stroke:#39B54A;stroke-width:12;stroke-miterlimit:10;}
	.st7{fill:none;stroke:#39B54A;stroke-width:12;stroke-miterlimit:10;}
	.st8{fill:#ED1C24;stroke:#ED1C24;stroke-width:8;stroke-miterlimit:10;}
	.st9{fill:#F7941D;stroke:#F7941D;stroke-width:6;stroke-miterlimit:10;}
	.st10{fill:#FFFFFF;stroke:#FBB040;stroke-width:2;}
	.st11{fill:none;}
	.st12{fill:#F7941D;stroke:#F7941D;stroke-width:0.75;stroke-miterlimit:10;}
	.st13{fill:#F15A29;stroke:#F15A29;stroke-width:0.25;}
	.st14{font-family:'MyriadPro-Regular';}
	.st15{font-size:8px;}
	.st16{fill:#FFFFFF;stroke:#FFFFFF;stroke-width:0.25;stroke-miterlimit:10;}
	.st17{font-size:6px;}
	.st18{fill:none;stroke:#006838;stroke-width:2;}
	.st19{fill:#006838;}
	.st20{fill:#FFFFFF;}
	.st21{fill:none;stroke:#39B54A;stroke-width:8;stroke-miterlimit:10;}
	.st22{font-size:12px;}
	.st23{fill:none;stroke:#939598;stroke-width:4;stroke-miterlimit:10;}
	.st24{stroke:#000000;stroke-width:0.25;}
	.st25{font-size:14px;}
	.st26{fill:none;stroke:#000000;stroke-width:2;}
	.st27{fill:#FBB040;stroke:#FBB040;stroke-linecap:round;stroke-miterlimit:10;}
	.st28{fill:none;stroke:#49C8F5;stroke-width:8;stroke-miterlimit:10;}
</style>
<g id="sketch" class="st0">
	
		<image style="display:inline;overflow:visible;" width="2845" height="2557" xlink:href="Blommington Bikr Route_blueprint.JPG"  transform="matrix(0.225 0 0 0.225 79.28 5.7084)">
	</image>
</g>
<g id="background">
	<rect class="st1" width="764.2" height="590"/>
</g>
<g id="area">
	<path class="st2" d="M380.7,447.1c-2.7,2.7-0.6,5.7,0,21.8c0.3,6.9-0.2,4.4,0,22.6c0.1,15.3,0.5,14.9,0,17.4
		c-0.4,2.4-1.4,6.7-0.5,12c0.1,0.6,0,0.1,1.1,4.6c1.4,6.1,1.6,7.5,3,8.4c0.3,0.2,0.9,0.6,4.3,0.8c3,0.2,4.5,0.3,7.3,0
		c5.8-0.6,9.9,0.3,24.7,0.3c8.1,0,7.9-0.3,18.2-0.5c11.6-0.2,18.7,3.6,22,0c1.2-1.2,1.6-3.1,2.2-5.2c0.7-2.7,0.6-4.9,0.6-5.7
		c-0.2-6.4,0.1-12.9,0-19.3c-0.1-7-0.3-5.6-1.2-25.3c-0.3-6.6-0.4-9.9-0.5-14.4c-0.2-7.3-0.3-16-0.3-16c0,0-3.4-2-5.2-2.7
		c-3.9-1.6-6.6,0.4-12.8,1.1c-2,0.2-1.3,0-10.6-0.3c-7.9-0.2-9.2-0.1-18.8-0.3c-3.2-0.1-3.2-0.1-9.5-0.3
		C383.8,445.5,382.2,445.7,380.7,447.1z"/>
	<path class="st2" d="M600.3,86.8c0.5,0.8,1,1.9,1.4,3.3c0.4,1.6,0.5,3,0.5,4c0,1-0.1,2.2-0.3,3.6c-0.5,3.6-1.3,6.2-1.6,6.9
		c-1.2,3.8-2,3.8-5.2,10.9c-0.9,1.9-1.3,3.1-1.7,4.6c-0.6,2.2-0.5,3.1-1,5.4c-0.5,2.7-1.2,4.4-1.7,5.6c-1.7,5.1-1.1,10.9-1,13.9
		c0.4,8.4-2,10.5-3.5,22.1c-2.2,16.4,2,17.6,0,35.4c-1.2,10.5-2.5,10.1-3.3,20.1c-0.3,4.1-0.4,7.9,0.5,25.6
		c1.1,21.6,1.7,24.9-1.1,27.2c-6.3,5.4-19.9-3-23.4,2.2c-0.8,1.2-0.5,2.4,0,6c1.7,11.5,3.3,22.4-0.7,25.3c-1.4,1.1-2.4,0.2-8,0
		c-6.2-0.2-9.8,0.7-14.2,1.3c-5.3,0.7-12.4,0.6-26.6,0.3c-17.8-0.4-17.3-1-28.8-1c-12.5,0-11.9,0.8-23.2,0.7
		c-13.8-0.1-14.6-1.3-25.8-1c-6.9,0.2-12.6,0.7-22.3,1.7c-7,0.7-14.2,0.6-21.2,1c-5.6,0.3-7.5,0.4-9.3-1c-4.3-3.5-4.1-13.1-1.1-19.8
		c1.8-4.1,3.7-4.9,4-8.5c0.4-4.2-2.1-5.6-3.3-10.3c-1.5-5.9,1.1-9,2.1-15.8c1.3-8.8-2.3-8.8-2.4-19.6c-0.1-8.4,1.9-8.9,2.7-20.7
		c0.2-3.3,0.2-4.9-0.2-17.4c-0.7-24.3-0.5-21.5-0.6-24.6c-0.7-18.6-1.1-27.9-1.6-30.7c-1.7-9.6-4.3-16.6-0.8-19.6
		c1-0.9,3.2-1.1,7.6-1.6c6.2-0.7,7.9-0.2,9.4-0.7c3.4-1.1,6.6-7.5,5.8-30.4"/>
</g>
<g id="street">
	<line class="st3" x1="221.2" y1="94.1" x2="221.2" y2="450.6"/>
	<line class="st3" x1="246.9" y1="94.1" x2="246.9" y2="561.8"/>
	<line class="st3" x1="271.8" y1="91" x2="271.8" y2="561.8"/>
	<line class="st3" x1="295.7" y1="91" x2="295.7" y2="561.8"/>
	<line class="st3" x1="321.5" y1="91" x2="321.5" y2="433.2"/>
	<line class="st3" x1="314.8" y1="433.2" x2="314.8" y2="562.1"/>
	<line class="st3" x1="337.7" y1="444.6" x2="337.7" y2="562.1"/>
	<line class="st3" x1="358.8" y1="433.2" x2="358.8" y2="562.1"/>
	<line class="st3" x1="378.9" y1="312.8" x2="378.9" y2="561.8"/>
	<line class="st3" x1="463.7" y1="281.3" x2="463.7" y2="561.8"/>
	<path class="st3" d="M350.1,89.6c3.1,106.4,4.5,173.5,3.4,184.8c-0.2,1.7-1.1,10,1,20.5c1,5.2,1.1,7.8,2.9,10.2
		c3.5,4.9,9.5,6.1,13.6,7c4,0.8,8.3,0.7,17.1,0.4c2.6-0.1,3.9-0.1,6.7-0.3c23.8-1.5,72.4-1.2,72.4-1.2c19.7,0.1,44.3-0.2,93.7-0.9
		c25-0.3,59.9-1,102.1-2.3"/>
	<polyline class="st3" points="631.9,85.6 186.3,94.1 186.3,210.3 	"/>
	<line class="st3" x1="145.6" y1="173.2" x2="373.2" y2="172.6"/>
	<line class="st3" x1="145.1" y1="197.7" x2="377.7" y2="197.7"/>
	<path class="st3" d="M145.6,221.6"/>
	<line class="st3" x1="145.6" y1="223.7" x2="380.5" y2="223.7"/>
	<line class="st3" x1="144.6" y1="248.3" x2="378.9" y2="248.3"/>
	<path class="st3" d="M144.6,273.1c67.5,0,134.9,0,202.4,0c2,1.7,3.9,2.5,5.2,3c1.5,0.5,1.9,0.4,6,1.3c2.4,0.6,2.7,0.7,4.5,1
		c2.9,0.6,3.5,0.1,5.2,0.8c1.2,0.5,1,0.7,3.1,1.8c1.6,0.8,2.5,1.3,3.7,1.6c2.1,0.4,3.8-0.2,4.2-0.3c6.3-1.8,145.5-2.4,182-2.9
		c19.3-0.2,47.2-0.8,81.2-2.6"/>
	<path class="st3" d="M594,159.9c3.7,0.1,6.8-0.1,8.9-0.3c3.9-0.3,5-0.7,6.8,0c2.1,0.8,2.1,1.7,5.8,3.9c2.4,1.4,3.6,2.2,5.2,2.4
		c1.4,0.2,1.7-0.2,6.3-1.3c1.1-0.3,3.4-0.8,6-1.3c2.6-0.5,3.8-0.7,5.2-0.8c2.4-0.1,3,0.3,7.1,0.8c5,0.6,5.3,0.2,8.1,0.8
		c1.8,0.4,4.1,1,6.8,2.4"/>
	<path class="st3" d="M145.6,81.5c0.6,125.1,1.2,250.1,1.9,375.2c0,0.2,0,0.4,0,0.5c0,2.4,0.5,93.7,0.5,94.3"/>
	<polyline class="st3" points="147,358 435.5,358 435.5,363.9 632.2,363.9 	"/>
	<path class="st3" d="M377.9,225.7c-0.4,25.8-0.3,42.7,0.5,51.6c0.6,6.9-0.5,10.4-1,13.3c-1.1,6-2.4,8.8-1.9,13.4
		c0.4,4.2,2.1,7.5,3.4,9.5"/>
	<path class="st3" d="M561,279.5c0.4,59.2,0.8,118.4,1.1,177.6c-3,8.6-4.4,16.1-5,21.7c-0.3,3-0.9,8.4-0.6,15.6
		c0.4,8.3,1.7,8.2,1.7,15.6c0,4.1-0.4,6.9,1.1,10.6c0.4,1,1.5,3.7,4.1,6.1c1.2,1.2,2.4,1.9,3.2,2.4c1.8,1.1,3.2,1.7,5.3,2.6
		c6.2,2.6,5.3,2.4,7.1,3c1.8,0.6,2.8,0.8,8.7,2c15.7,3.1,5.8,1.1,8.3,1.7c2.8,0.6,4.1,0.9,6.2,0.9c2.4,0,4.2,0,5.4-1.2
		c1.3-1.3,0.9-2.8,1.5-7.1c0.4-3.1,0.7-2.4,1.5-6.9c0.6-3.2,1.1-6,1.2-9.8c0.1-3.4-0.2-6.2-0.5-7.8c-0.1-0.9-0.4-3-1.1-5.3
		c-0.6-2.3-2-6.8-5.7-11.3c-1-1.2-2.5-2.8-4.7-4.4"/>
	<path class="st3" d="M630.3,278c-0.1,41.4-0.2,82.8-0.3,124.3c0,2.2,0.1,4.8,0.6,7.8c0.3,1.6,0.8,4.5,2.1,7.9
		c1.5,3.8,2.4,4.1,3.5,7.2c0.5,1.4,0.8,2.9,1.2,7c0.6,6.4,0.2,8.3,0.5,15.2c0.1,2.4,0.3,5.7,0.8,10.1c0.7,5.9,1.2,6.7,1.5,11.1
		c0.1,1.1,0.2,4.7-0.3,9.4c-0.3,3-0.5,4.5-1.1,6.6c-1,3.4-2.5,5.6-4.3,8.2c-2.7,4-5.4,6.6-7.3,8.5c-2.5,2.4-3.8,3.7-6.1,5.1
		c-0.7,0.4-2.8,1.7-9.2,3.6c-5.8,1.8-8.7,2.7-11.2,2.7c-3.5,0-3-0.8-11.5-2.4c-4-0.7-4.8-0.7-10.4-1.7c-5.8-1.1-7-1.6-7.7-1.9
		c-3.2-1.4-3.8-2.6-7.2-3.9c-2.1-0.8-3.2-0.9-6.4-1.5c-6.2-1.2-6.3-1.8-12.3-3.1c-1-0.2-5.7-1.2-12-1.7c-3.8-0.3-6.5-0.4-11.5-0.4
		c-6.6-0.1-7.2,0.2-14.5,0.1c-6.3,0-5.8-0.2-10-0.1c-5.9,0.1-6.1,0.4-12.8,0.5c-3.6,0.1-5.1,0-9.5,0.1c-2.6,0.1-4.7,0.2-6.1,0.3"/>
	<path class="st3" d="M465.2,384.7c54.8-0.2,109.6-0.4,164.4-0.5"/>
	<path class="st3" d="M380.6,445.2c46.7-0.5,80.6-0.7,103.3-0.7h0c4,0,31.7,0,53-0.2c13.3-0.1,40.3-0.3,100.7-0.8"/>
	<path class="st3" d="M380.6,407.2"/>
	<path class="st3" d="M534.9,528.3c-2.3-4.3-3.1-7.9-3.5-10.5c-0.4-2.8,0-3.6-0.7-7.3c-0.5-2.8-1-4.2-1-6.8c0-2.3,0.3-3.9,0.5-4.8
		c0.1-0.6,0.8-7.6,2.2-21.7c0.7-6.6,0.8-8.5,1.9-11.3c0.8-2.1,1.4-3,2.2-5.8c1.1-3.8,1.3-7.3,1.3-7.9c0.1-1.7,0.1-3.9-0.3-6.5"/>
	<path class="st3" d="M512.4,530.2c-0.3-0.7-0.6-1.6-1-2.7c-0.4-1.1-1.5-4.4-2.5-8.8c-0.5-2.2-1.3-5.8-1.7-10.6
		c-0.4-4.6,0.1-4.8-0.2-10.5c-0.3-6.4-1-6.2-0.8-9.8c0.1-4.1,0.9-3.7,2.4-12.3c1.3-7.4,0.8-7.9,2-10.6c0.9-2,2-3.5,2.4-6.2
		c0.2-1.2,0.1-2.1-0.2-5.2c-0.2-2-0.5-4.6-0.8-7.8"/>
	<path class="st3" d="M483,532.5c0.5-28.8,1-57.6,1.5-86.4"/>
	<path class="st3" d="M186.3,197.7c0.3,121.3,0.5,242.6,0.8,363.9"/>
	<path class="st3" d="M461.2,558.8"/>
	<path class="st3" d="M465.1,559.8c-1.6,0.1-4,0.2-7,0c-2.4-0.1-3.3-0.3-5.4-0.4c-3.6-0.1-6.2,0.3-7.2,0.5
		c-9.8,1.4-41.7,0.2-61.9,0.3c-6.8,0-7.7,0.2-20.9,0.5c-63.3,1.7-154.4,1.5-162.4,0.8c-2.9-0.3-4.5,0.1-7.6,0
		c-2.4-0.1-3.4-0.2-4.3-0.4c-1.4-0.2-3.1-0.7-5.9-2c-3.2-1.5-3.7-2.1-6.8-3.7c-0.2-0.1-0.5-0.3-0.9-0.5c-3.2-1.6-7.1-2.9-7.4-3
		c-6-2-9.1-2.9-11.6-2.8c-0.6,0-1.6,0.2-3,0.2c-1.1,0.1-2,0.1-2.3,0.1c-1,0-2.2,0.1-3.6,0"/>
	<path class="st4" d="M153.3,549.6"/>
	<path class="st3" d="M148.6,457c27.9,0,38.6,0.3,42.7,0.5c1.4,0.1,4.7,0.4,9.2,0.3c1.1,0,1.9-0.1,2.5-0.1c1.3-0.1,2.1-0.2,2.4-0.2
		c2.9-0.2,4.3,0.9,8.1,1c2,0.1,3.3,0.1,4.4-0.8c0.6-0.5,0.9-1.2,1.6-2.7c0.4-0.8,0.7-1.4,1-2.4c0.4-1.3,0.7-3.2,0.5-4
		c0,0,0-0.1,0-0.1c0.1,0,0.7,2,2.1,3.4c0.6,0.6,1.2,0.9,2.3,1.4c1.6,0.8,2.3,0.9,4.4,1.6c1.7,0.6,2.9,1.1,4.6,1.8
		c1.8,0.8,2.7,1.2,3.8,1.8c1.1,0.6,2,1.3,3.7,2.6c2.9,2.2,3.5,2.9,3.8,3.3c0.1,0.2,0.5,0.7,1.1,1.6c0.2,0.3,0.5,0.8,0.9,1.2"/>
	<line class="st3" x1="399" y1="89.7" x2="399" y2="170.3"/>
	<line class="st3" x1="378.9" y1="334.6" x2="631.7" y2="332.7"/>
	<line class="st3" x1="148.6" y1="407.2" x2="584" y2="407.2"/>
	<path class="st3" d="M584,407.2c6.9-0.2,12,1.1,14.1,1.9c2.7,1,5.1,2.6,5.1,2.6c0.2,0.1,0.4,0.2,0.5,0.3c2.7,1.7,4.3,3.5,6.6,6
		c1.4,1.6,3.6,3.9,5.8,7.3c1.1,1.7,3,4.7,4.6,9.1c0.6,1.6,1.4,4.1,1.9,7.2c0.9,5.2,0.6,9.2,0.6,10.1c-0.1,0.6-0.5,3-1.4,7.7
		c-1,5.3-1.2,6.4-1.7,7.9c-0.9,2.6-1.8,4.4-2.5,5.8c-1,1.9-2.2,4.3-4.3,6.8c-2.4,3-4.6,5.7-8.4,6.9c-2.4,0.7-4.6,0.6-5.9,0.4"/>
	<path class="st3" d="M590.5,153.5c-0.8-5-0.6-9.1-0.3-11.8c0.4-4.2,1.1-5,2.3-12.1c1.3-7.7,0.6-7.5,1.7-10.8
		c1.7-5.3,3.2-5.1,5.7-11.8c1.8-4.9,2.2-8.4,2.3-9.4c0.3-2.6,0.2-4.4,0-8c-0.2-3-0.4-7.7-0.7-13.9"/>
	<line class="st3" x1="247.3" y1="433.2" x2="378.2" y2="434.9"/>
	<path class="st3" d="M145.8,111.1c6,8.6,10.3,16,13.2,21.3c2.6,4.8,5,9.9,9.8,19.9c3.7,7.7,6.7,14.1,8.7,18.6"/>
	<path class="st3" d="M380.7,447.1"/>
	<path class="st3" d="M526.1,166.4h20.2V189h-20.2v-12c0-1.1,0-1.1,0-1.1"/>
</g>
<g id="creek">
	<path class="st5" d="M562.4,493.6c-3.7-1.1-6.8-1.4-8.9-1.5c-2.5-0.1-4.7,0.5-7.8-0.4c-1.4-0.4-1.4-0.7-3-1.2c-1.3-0.4-3.5-1-6.8-1
		c-4.9,0-5.1,1-10.9,1.4c-2,0.1-3.9,0.1-7.8,0c-2.8-0.1-4.2-0.1-6.3-0.3c-1.6-0.1-2.5-0.2-4.2-0.3c-0.9,0-2.2-0.1-4.2,0
		c-2.4,0-3.7,0.2-7.4,0.4c-3.9,0.3-5.9,0.4-7.2,0.4c-1.6,0-3.8,0-6.6-0.2c-2.8-0.2-4.9-0.6-6.8-1c-3.5-0.7-3.8-0.9-6.2-1.4
		c-1.8-0.3-1.5-0.2-2.2-0.4c-3.5-0.8-3.9-2.3-6.9-3.2c-0.7-0.2-1.9-0.3-4.4-0.5c-0.8-0.1-2.8-0.2-5-0.2c-3.6,0-4.7,0.4-9.7,0.8
		c-4.7,0.4-4.1,0.1-6.4,0.4c-2.6,0.3-5.1,1.2-10.1,2.8c-4,1.3-7.1,2.4-10.9,4.1c-2.1,0.9-3.9,1.8-5.8,2.8c-1.1,0.5-1.9,0.9-2.8,1.5
		c-0.7,0.4-1.8,1.1-3.1,2.1c-1.1,0.8-1.1,0.9-2,1.5c-0.8,0.6-1.6,1.1-3.1,1.8c-2,1-2.7,1.2-4.2,2c-2.5,1.2-4.3,2.3-5.6,3.1
		c-1.3,0.8-2.9,1.9-4.7,3.3"/>
</g>
<g id="bike_route">
	<path class="st6" d="M299,171.7H179.4H299z"/>
	<polygon class="st6" points="295.7,165.7 295.7,228.7 295.7,229.7 	"/>
	<line class="st7" x1="310.1" y1="223.7" x2="291.7" y2="223.7"/>
	<path class="st7" d="M175.1,167.7c3.8,4.2,6.2,8.1,7.8,11c1.6,3,2.6,5.7,4.7,11c1.7,4.5,2.7,7,3.7,10.7c2.1,7.3,2.7,13.1,2.8,14.8
		c0.3,3.7,0.5,8.5,0,14.1l0.3,270.7h182.1c0.4,3.4,0.6,8.3,0,14.2c-0.4,3.7-0.8,5.1,0,5.8c1.7,1.5,6-1.2,23.6-11.6
		c5.9-3.5,7.3-4.3,9.7-5.4c5.5-2.5,9.8-3.8,15.9-5.4c6.9-1.9,10.8-3,16.6-3.6c6.2-0.7,11.3-0.5,14.4-0.4c3.6,0.1,6.7,0.4,9,0.7v-3.4
		v-5l20.9,1.5l17.7,0.4l18.4,0.4l33.2-0.4l23.8-0.7c8.7-1.4,14.5-2.2,16.5-2.1c0.1,0,0.5,0,0.8-0.2c0.8-0.8-1-3.7-3.9-8.6
		c-4.7-7.7-4.8-7.7-5-8.4c-0.6-1.4-2.1-4.8-3.2-10.9c-1.3-6.6-1.4-11.9-1.4-13.1c-0.2-9.3,0.1-98.5,0.9-220.7"/>
	<path class="st7" d="M584.3,226.2c0.6-5.2,1.8-8.2,2.9-10c0.4-0.7,1.6-2.6,2.3-5.5c0.2-0.8,0.3-1.3,0.4-2.4
		c0.3-2.3,0.3-4.1,0.4-8.3c0-2.1,0-3.8,0-5c0-1.2,0-3.6,0-6.7c0-2.5,0-4.5-0.1-5.8c-0.1-12.6-0.2-16-0.2-21.3c0-2.5,0-6.3,0-11.1"/>
	<path class="st7" d="M592.7,156.3c-4.2-0.7-7.4-0.3-9.5,0.2c-4.5,1-5.5,2.8-10.2,3.4c-3.9,0.5-4-0.6-7.9,0
		c-4.6,0.7-4.7,2.3-8.9,2.8c-3.8,0.5-4.3-0.6-8.8-0.2c-0.9,0.1-1.6,0.2-2.2,0.3c-2.2,0.5-3.4,1-4.8,1.4c-1.5,0.4-2.8,0.5-5.4,0.8
		c-1.7,0.1-3.9,0.2-6.5,0.1"/>
	<line class="st7" x1="527.1" y1="159.2" x2="527.1" y2="177.8"/>
	<line class="st7" x1="371.2" y1="173.7" x2="531.9" y2="172.7"/>
	<path class="st7" d="M377.2,225.7c0-16.4,0-32.7,0-49.1"/>
</g>
<g id="sites">
	<path class="st8" d="M313.1,229.7h-4c-2.2,0-4-1.8-4-4v-4c0-2.2,1.8-4,4-4h4c2.2,0,4,1.8,4,4v4
		C317.1,227.9,315.3,229.7,313.1,229.7z"/>
	<path class="st9" d="M286.7,184.8h-1c-1.1,0-2-0.9-2-2v-1c0-1.1,0.9-2,2-2h1c1.1,0,2,0.9,2,2v1
		C288.7,183.9,287.8,184.8,286.7,184.8z"/>
	<path class="st8" d="M379.2,229.7h-4c-2.2,0-4-1.8-4-4v-4c0-2.2,1.8-4,4-4h4c2.2,0,4,1.8,4,4v4
		C383.2,227.9,381.4,229.7,379.2,229.7z"/>
	<path class="st9" d="M179.9,241.8h-1c-1.1,0-2-0.9-2-2v-1c0-1.1,0.9-2,2-2h1c1.1,0,2,0.9,2,2v1C181.9,240.9,181,241.8,179.9,241.8z
		"/>
	<path class="st9" d="M206.9,291.8h-1c-1.1,0-2-0.9-2-2v-1c0-1.1,0.9-2,2-2h1c1.1,0,2,0.9,2,2v1C208.9,290.9,208,291.8,206.9,291.8z
		"/>
	<path class="st9" d="M207.7,385.3h-1c-1.1,0-2-0.9-2-2v-1c0-1.1,0.9-2,2-2h1c1.1,0,2,0.9,2,2v1
		C209.7,384.4,208.8,385.3,207.7,385.3z"/>
	<path class="st9" d="M207.7,471.3h-1c-1.1,0-2-0.9-2-2v-1c0-1.1,0.9-2,2-2h1c1.1,0,2,0.9,2,2v1
		C209.7,470.4,208.8,471.3,207.7,471.3z"/>
	<path class="st9" d="M190.6,512h-1c-1.1,0-2-0.9-2-2v-1c0-1.1,0.9-2,2-2h1c1.1,0,2,0.9,2,2v1C192.6,511.1,191.7,512,190.6,512z"/>
	<path class="st9" d="M417.1,480.3h-1c-1.1,0-2-0.9-2-2v-1c0-1.1,0.9-2,2-2h1c1.1,0,2,0.9,2,2v1
		C419.1,479.4,418.2,480.3,417.1,480.3z"/>
	<path class="st9" d="M597.2,290.8h-1c-1.1,0-2-0.9-2-2v-1c0-1.1,0.9-2,2-2h1c1.1,0,2,0.9,2,2v1
		C599.2,289.9,598.3,290.8,597.2,290.8z"/>
	<path class="st9" d="M578.3,206L578.3,206c-1.4,0-2.5-1.1-2.5-2.5v0c0-1.4,1.1-2.5,2.5-2.5l0,0c1.4,0,2.5,1.1,2.5,2.5v0
		C580.8,204.9,579.7,206,578.3,206z"/>
	<path class="st9" d="M555.7,182.2h-1c-1.1,0-2-0.9-2-2v-1c0-1.1,0.9-2,2-2h1c1.1,0,2,0.9,2,2v1
		C557.7,181.3,556.8,182.2,555.7,182.2z"/>
	<path class="st9" d="M464.1,187.6h-1c-1.1,0-2-0.9-2-2v-1c0-1.1,0.9-2,2-2h1c1.1,0,2,0.9,2,2v1
		C466.1,186.7,465.2,187.6,464.1,187.6z"/>
	<path class="st9" d="M286.7,217.3h-1c-1.1,0-2-0.9-2-2v-1c0-1.1,0.9-2,2-2h1c1.1,0,2,0.9,2,2v1
		C288.7,216.4,287.8,217.3,286.7,217.3z"/>
	<path class="st9" d="M172.5,185h-1c-1.1,0-2-0.9-2-2v-1c0-1.1,0.9-2,2-2h1c1.1,0,2,0.9,2,2v1C174.5,184.1,173.6,185,172.5,185z"/>
</g>
<g id="label">
	<path class="st10" d="M174.5,247.1l-16.6,8.9c-2.1-1.3-4.6-2-7.2-2H66.2c-7.4,0-13.5,5.8-13.5,12.9v32.9c0,7.1,6.1,12.9,13.5,12.9
		h84.5c7.4,0,13.5-5.8,13.5-12.9v-32.9c0-3.2-1.2-6-3.2-8.3L174.5,247.1z"/>
	<polygon class="st11" points="96.5,422.8 88.5,422.8 92.5,414.3 	"/>
	<path class="st10" d="M158.7,544.2v-28.4l21.5-5.9l-21.5-6.2v-28.5c0-4.6-6.5-8.3-14.4-8.3H77c-7.9,0-14.4,3.7-14.4,8.3v69
		c0,4.6,6.5,8.3,14.4,8.3h67.3C152.3,552.5,158.7,548.8,158.7,544.2z"/>
	<path class="st10" d="M355.7,252.5h-30.3l-6.3-16.9l-6.6,16.9H282c-4.9,0-8.9,5.1-8.9,11.3v53c0,6.2,4,11.3,8.9,11.3h73.7
		c4.9,0,8.9-5.1,8.9-11.3v-53C364.6,257.6,360.6,252.5,355.7,252.5z"/>
	<path class="st10" d="M415.2,201.3l0,21.8l-27.3,4.5l27.3,4.8v21.9c0,3.5,8.2,6.4,18.3,6.4l85.6,0c10,0,18.3-2.9,18.3-6.4v-52.9
		c0-3.5-8.2-6.4-18.3-6.4l-85.6,0C423.4,194.9,415.2,197.8,415.2,201.3z"/>
	<path class="st10" d="M633.3,239.5v40.4l-24.1,8.4l24.1,8.8v40.6c0,6.5,7.3,11.8,16.2,11.8l75.7,0c8.9,0,16.2-5.3,16.2-11.8v-98.2
		c0-6.5-7.3-11.8-16.2-11.8l-75.7,0C640.5,227.7,633.3,233,633.3,239.5z"/>
	<path class="st10" d="M369.4,451.4h33l6.8,22.5l7.2-22.5l33.2,0c5.3,0,9.7-6.8,9.7-15.1l0-70.6c0-8.3-4.4-15.1-9.7-15.1h-80.3
		c-5.3,0-9.7,6.8-9.7,15.1l0,70.6C359.8,444.6,364.1,451.4,369.4,451.4z"/>
	<path class="st12" d="M261.8,463.5h-40c-1.6,0-2.9,2.6-2.9,5.8v2.2l-4.6,1.1l4.6,1.4l0-1.6v4.1c0,3.2,1.3,5.8,2.9,5.8h40
		c1.6,0,2.9-2.6,2.9-5.8v-7.3C264.7,466.2,263.4,463.5,261.8,463.5z"/>
	<path class="st12" d="M267.1,373h-43.5c-1.7,0-3.2,3-3.2,6.6v2.5l-5,1.3l5,1.6l0-1.8v4.7c0,3.6,1.4,6.6,3.2,6.6l43.5,0
		c1.7,0,3.2-3,3.2-6.6v-8.3C270.3,375.9,268.9,373,267.1,373z"/>
	<path class="st12" d="M263.5,281.8h-45.3c-1.8,0-3.3,3.8-3.3,8.5v3.2l-5.2,1.7l5.2,2.1l0-2.3v6.1c0,4.7,1.5,8.5,3.3,8.5h45.3
		c1.8,0,3.3-3.8,3.3-8.5v-10.6C266.8,285.6,265.3,281.8,263.5,281.8z"/>
	<path class="st12" d="M246.9,189h26.7c1.1,0,1.9-1.5,1.9-3.4v-1.3l3.1-0.7l-3-0.8l0,0.9v-2.4c0-1.9-0.9-3.4-1.9-3.4h-26.7
		c-1.1,0-1.9,1.5-1.9,3.4v4.2C244.9,187.5,245.8,189,246.9,189z"/>
	<path class="st12" d="M261.7,219h13.8c0.6,0,1-1.2,1-2.6v-1l1.6-0.5l-1.6-0.6l0,0.7v-1.8c0-1.4-0.5-2.6-1-2.6h-13.8
		c-0.6,0-1,1.2-1,2.6v3.2C260.7,217.9,261.1,219,261.7,219z"/>
	<path class="st12" d="M442.2,157.3l0,17.2c0,0.7,5.9,1.2,13.1,1.2h4.9l2.6,2l3.2-2l-3.6,0h9.3c7.2,0,13.1-0.6,13.1-1.2v-17.2
		c0-0.7-5.9-1.2-13.1-1.2h-16.4C448.1,156,442.2,156.6,442.2,157.3z"/>
	<path class="st12" d="M620.2,174.4h-47.1c-1.9,0-3.4,1.7-3.4,3.8v1.4l-5.4,0.8l5.4,0.9l0-1.1v2.7c0,2.1,1.5,3.8,3.4,3.8h47.1
		c1.9,0,3.4-1.7,3.4-3.8v-4.8C623.6,176.1,622.1,174.4,620.2,174.4z"/>
	<path class="st10" d="M142.2,204.6v-19.2l22.8-4l-22.8-4.2v-19.3c0-3.1-6.9-5.6-15.2-5.6H55.5c-8.4,0-15.2,2.5-15.2,5.6l0,46.7
		c0,3.1,6.9,5.6,15.2,5.6h71.4C135.3,210.3,142.2,207.7,142.2,204.6z"/>
</g>
<g id="label_text">
	<text transform="matrix(1 0 0 1 422.1454 207.5691)"><tspan x="0" y="0" class="st13 st14 st15">IU Sample Gates</tspan><tspan x="0" y="9" class="st14 st15">Since being constructed in1987, </tspan><tspan x="0" y="18" class="st14 st15">it is now an iconic landmark of </tspan><tspan x="0" y="27" class="st14 st15">Indiana University, Bloomington. </tspan><tspan x="0" y="36" class="st14 st15">You can take a photo in front of </tspan><tspan x="0" y="45" class="st14 st15">the gates whenever you visit IUB!</tspan></text>
	<text transform="matrix(1 0 0 1 643.0343 242.5691)"><tspan x="0" y="0" class="st13 st14 st15">Soma Coffee</tspan><tspan x="0" y="9" class="st14 st15">A more than 20-year local </tspan><tspan x="0" y="18" class="st14 st15">coffee shop, it has been </tspan><tspan x="0" y="27" class="st14 st15">welcomed by locals </tspan><tspan x="0" y="36" class="st14 st15">because it sells high </tspan><tspan x="0" y="45" class="st14 st15">quality coffee and drinks. </tspan><tspan x="0" y="54" class="st14 st15">Each month, it contributes </tspan><tspan x="0" y="63" class="st14 st15">to the Bloomington </tspan><tspan x="0" y="72" class="st14 st15">community by spotlighting </tspan><tspan x="0" y="81" class="st14 st15">a community organization </tspan><tspan x="0" y="90" class="st14 st15">and sponsoring that </tspan><tspan x="0" y="99" class="st14 st15">organization.</tspan></text>
	<text transform="matrix(0.9464 0 0 1 59.0787 269.0844)"><tspan x="0" y="0" class="st13 st14 st15">WonderLab Science Museum</tspan><tspan x="0" y="9" class="st14 st15">Present live science shows </tspan><tspan x="0" y="18" class="st14 st15">and demonstrations, and </tspan><tspan x="0" y="27" class="st14 st15">explain the science and </tspan><tspan x="0" y="36" class="st14 st15">math of our everyday lives.</tspan></text>
	<text transform="matrix(1 0 0 1 70.6748 481.3169)"><tspan x="0" y="0" class="st13 st14 st15">B-Line Trail</tspan><tspan x="0" y="9" class="st14 st15">The trail had been run by </tspan><tspan x="0" y="18" class="st14 st15">the former CSX Railroad </tspan><tspan x="0" y="27" class="st14 st15">for more than a century. </tspan><tspan x="0" y="36" class="st14 st15">It is now converted into </tspan><tspan x="0" y="45" class="st14 st15">a tarmacked path for </tspan><tspan x="0" y="54" class="st14 st15">running, walking, cycling </tspan><tspan x="0" y="63" class="st14 st15">and skateboarding.</tspan></text>
	<text transform="matrix(0.9892 0 0 1 367.8563 362.8641)"><tspan x="0" y="0" class="st13 st14 st15">Bryan Park</tspan><tspan x="0" y="9.1" class="st14 st15">One of the city&apos;s most </tspan><tspan x="0" y="18.2" class="st14 st15">visited parks, the 33-acre </tspan><tspan x="0" y="27.3" class="st14 st15">park includes: Bryan Park </tspan><tspan x="0" y="36.4" class="st14 st15">Pool, a baseball field, </tspan><tspan x="0" y="45.5" class="st14 st15">basketball and tennis </tspan><tspan x="0" y="54.6" class="st14 st15">courts, shelters available </tspan><tspan x="0" y="63.7" class="st14 st15">for rent, and playgrounds. </tspan><tspan x="0" y="72.8" class="st14 st15">Sheridan Creek runs</tspan><tspan x="0" y="81.9" class="st14 st15">through the park.</tspan></text>
	<text transform="matrix(1 0 0 1 282.1259 265.7625)"><tspan x="0" y="0" class="st13 st14 st15">Monroe Public Library</tspan><tspan x="0" y="9" class="st14 st15">A local library which is </tspan><tspan x="0" y="18" class="st14 st15">open to everyone and </tspan><tspan x="0" y="27" class="st14 st15">provides free services, </tspan><tspan x="0" y="36" class="st14 st15">e.g. borrowing books </tspan><tspan x="0" y="45" class="st14 st15">and mediam, events,</tspan><tspan x="0" y="54" class="st14 st15">adult education, etc.</tspan></text>
	<text transform="matrix(1 0 0 1 46.4167 166.4293)"><tspan x="0" y="0" class="st13 st14 st15">Bloomington Bike Project</tspan><tspan x="0" y="9" class="st14 st15">A local store thatprovides </tspan><tspan x="0" y="18" class="st14 st15">services including bicycle</tspan><tspan x="0" y="27" class="st14 st15">repair, maintenance classes,</tspan><tspan x="0" y="36" class="st14 st15">and Earn-A-Bike activities. </tspan></text>
	<text transform="matrix(1 0 0 1 223.7566 472.7607)"><tspan x="0" y="0" class="st16 st14 st15">Hopscotch </tspan><tspan x="8" y="6" class="st16 st14 st15">Coffee</tspan></text>
	<text transform="matrix(1 0 0 1 233.3422 382.5032)"><tspan x="0" y="0" class="st16 st14 st15">Kroger </tspan><tspan x="-9.5" y="6" class="st16 st14 st15">Supermarket</tspan></text>
	<text transform="matrix(1.0256 0 0 1 226.4974 292.1461)"><tspan x="0" y="0" class="st16 st14 st15">Monroe </tspan><tspan x="-8.4" y="6" class="st16 st14 st15">Conventional</tspan><tspan x="2.8" y="12" class="st16 st14 st15">Center</tspan></text>
	<text transform="matrix(1 0 0 1 248.3047 186.0189)" class="st16 st14 st15">Butch&apos;s</text>
	<text transform="matrix(1 0 0 1 263.6514 216.8229)" class="st16 st14 st17">CVS</text>
	<text transform="matrix(1 0 0 1 445.3348 165.7498)"><tspan x="0" y="0" class="st16 st14 st15">Emie Pyled</tspan><tspan x="11.9" y="6" class="st16 st14 st15">Hall</tspan></text>
	<text transform="matrix(1 0 0 1 573.142 183.2566)" class="st16 st14 st15">IU Auditorium</text>
	<path class="st12" d="M640.3,196.2h-45.2c-1.8,0-3.3,2.5-3.3,5.5v2.1l-5.2,1.1l5.1,1.3l0-1.5v3.9c0,3,1.5,5.5,3.3,5.5h45.2
		c1.8,0,3.3-2.5,3.3-5.5v-6.9C643.6,198.7,642.1,196.2,640.3,196.2z"/>
	<text transform="matrix(1 0 0 1 597.0234 204.7934)"><tspan x="0" y="0" class="st16 st14 st15">Musical Arts </tspan><tspan x="-1.3" y="6" class="st16 st14 st15">Center (MAC)</tspan></text>
	<text transform="matrix(1 0 0 1 366.6039 225.7115)" class="st16 st14 st15">START</text>
	<text transform="matrix(1 0 0 1 303.8006 225.7115)" class="st16 st14 st15">END</text>
</g>
<g id="arrow">
	<g>
		<g>
			<line class="st18" x1="377.4" y1="204.4" x2="377.4" y2="210.4"/>
			<g>
				<polygon class="st19" points="375.4,205 377.4,201.6 379.4,205 				"/>
			</g>
		</g>
	</g>
	<line class="st18" x1="377.7" y1="174.4" x2="377.7" y2="180.7"/>
	<g>
		<g>
			<line class="st18" x1="384.3" y1="174.4" x2="376.7" y2="174.4"/>
			<g>
				<polygon class="st19" points="383.7,172.4 387.2,174.4 383.7,176.4 				"/>
			</g>
		</g>
	</g>
	<g>
		<g>
			<line class="st18" x1="493.5" y1="173.2" x2="487.3" y2="173.2"/>
			<g>
				<polygon class="st19" points="493,171.2 496.4,173.2 493,175.2 				"/>
			</g>
		</g>
	</g>
	<line class="st18" x1="527.1" y1="167.1" x2="527.1" y2="173.4"/>
	<g>
		<g>
			<line class="st18" x1="531.8" y1="166" x2="526.5" y2="168"/>
			<g>
				<polygon class="st19" points="530.6,164.3 534.5,165 532,168.1 				"/>
			</g>
		</g>
	</g>
	<line class="st18" x1="528.1" y1="172.4" x2="521.8" y2="172.4"/>
	<line class="st18" x1="588.8" y1="156" x2="582.7" y2="157.5"/>
	<g>
		<g>
			<line class="st18" x1="589.6" y1="162.3" x2="589.6" y2="156"/>
			<g>
				<polygon class="st19" points="591.6,161.7 589.6,165.1 587.6,161.7 				"/>
			</g>
		</g>
	</g>
	<g>
		<g>
			<line class="st18" x1="584" y1="279.8" x2="584" y2="273.5"/>
			<g>
				<polygon class="st19" points="586,279.2 584,282.6 582,279.2 				"/>
			</g>
		</g>
	</g>
	<g>
		<g>
			<line class="st18" x1="583.4" y1="409.2" x2="583.4" y2="403"/>
			<g>
				<polygon class="st19" points="585.4,408.6 583.4,412.1 581.4,408.6 				"/>
			</g>
		</g>
	</g>
	<g>
		<g>
			<path class="st18" d="M591.9,485.1l6.2-1c0-0.8-0.2-1.4-0.4-1.9c-0.1-0.3-0.3-0.5-0.8-1.4c-0.2-0.4-0.4-0.6-1.1-1.6
				c-0.3-0.4-0.5-0.7-0.6-0.9"/>
			<g>
				<polygon class="st19" points="592.8,487 589.1,485.6 592.2,483.1 				"/>
			</g>
		</g>
	</g>
	<g>
		<g>
			<polyline class="st18" points="473.3,487.5 466.8,486.5 466.2,494.1 460.5,494 			"/>
			<g>
				<polygon class="st19" points="461.1,492 457.6,494 461,496 				"/>
			</g>
		</g>
	</g>
	<g>
		<g>
			<line class="st18" x1="515.9" y1="488.2" x2="522.1" y2="488.2"/>
			<g>
				<polygon class="st19" points="516.5,490.2 513,488.2 516.5,486.2 				"/>
			</g>
		</g>
	</g>
	<g>
		<g>
			<polyline class="st18" points="381.5,517.5 375.2,520.3 375.2,512.2 375.2,500.4 366.2,500.4 			"/>
			<g>
				<polygon class="st19" points="366.8,498.4 363.3,500.4 366.8,502.4 				"/>
			</g>
		</g>
	</g>
	<g>
		<g>
			<path class="st18" d="M425.5,498c-1.2,0.2-2.7,0.6-4.4,1.2c-0.3,0.1-0.6,0.3-0.9,0.4"/>
			<g>
				<polygon class="st19" points="419.8,497.6 417.6,501 421.6,501.2 				"/>
			</g>
		</g>
	</g>
	<g>
		<line class="st19" x1="289.5" y1="500.2" x2="298.6" y2="500.2"/>
		<g>
			<line class="st18" x1="292.4" y1="500.2" x2="298.6" y2="500.2"/>
			<g>
				<polygon class="st19" points="292.9,502.2 289.5,500.2 292.9,498.2 				"/>
			</g>
		</g>
	</g>
	<g>
		<g>
			<polyline class="st18" points="204.2,501.9 194.7,501.9 194.6,495.4 			"/>
			<g>
				<polygon class="st19" points="196.6,496 194.6,492.6 192.6,496 				"/>
			</g>
		</g>
	</g>
	<g>
		<line class="st19" x1="194.6" y1="399.6" x2="194.6" y2="408.7"/>
		<g>
			<line class="st18" x1="194.6" y1="402.5" x2="194.6" y2="408.7"/>
			<g>
				<polygon class="st19" points="192.6,403 194.6,399.6 196.6,403 				"/>
			</g>
		</g>
	</g>
	<g>
		<line class="st19" x1="193.9" y1="268.6" x2="193.9" y2="277.7"/>
		<g>
			<line class="st18" x1="193.9" y1="271.5" x2="193.9" y2="277.7"/>
			<g>
				<polygon class="st19" points="191.9,272 193.9,268.6 195.9,272 				"/>
			</g>
		</g>
	</g>
	<g>
		<g>
			<path class="st18" d="M185.5,182.8c-0.9-1.7-1.9-3.5-3.1-5.4c-1.2-1.8-2.6-2.4-2.3-3.3c0.3-1.1,2.5-1.3,4.3-1.6
				c0.7-0.1,1.4-0.1,2.1-0.2"/>
			<g>
				<polygon class="st19" points="185.8,174.5 189.3,172.6 185.9,170.5 				"/>
			</g>
		</g>
	</g>
	<g>
		<line class="st19" x1="256.8" y1="172.1" x2="247.7" y2="172.1"/>
		<g>
			<line class="st18" x1="253.9" y1="172.1" x2="247.7" y2="172.1"/>
			<g>
				<polygon class="st19" points="253.3,170.1 256.8,172.1 253.3,174.1 				"/>
			</g>
		</g>
	</g>
	<g>
		<g>
			<polyline class="st18" points="288.7,171.7 295.9,171.7 295.9,178.1 			"/>
			<g>
				<polygon class="st19" points="293.9,177.6 295.9,181 297.9,177.6 				"/>
			</g>
		</g>
	</g>
	<g>
		<g>
			<polyline class="st18" points="295.7,215.4 295.7,223.7 298,223.7 			"/>
			<g>
				<polygon class="st19" points="297.4,225.7 300.9,223.7 297.4,221.7 				"/>
			</g>
		</g>
	</g>
</g>
<g id="street_name">
	<g>
		<text transform="matrix(1 0 0 1 211.9853 360.9124)" class="st20 st14 st15">W 2nd St</text>
		<text transform="matrix(1 0 0 1 211.9853 360.9124)" class="st20 st14 st15">W 2nd St</text>
	</g>
	<g>
		<text transform="matrix(1 0 0 1 211.3985 276.0161)" class="st20 st14 st15">W 3rd St</text>
		<text transform="matrix(1 0 0 1 211.3985 276.0161)" class="st20 st14 st15">W 3rd St</text>
	</g>
	<g>
		<text transform="matrix(0.9931 0 0 1 211.3231 251.1541)" class="st20 st14 st15">W 4th St</text>
		<text transform="matrix(0.9931 0 0 1 211.3231 251.1541)" class="st20 st14 st15">W 4th St</text>
	</g>
	<g>
		<text transform="matrix(1 0 0 1 410.755 176.3428)" class="st20 st14 st15">E 7th St</text>
		<text transform="matrix(1 0 0 1 410.755 176.3428)" class="st20 st14 st15">E 7th St</text>
	</g>
	<g>
		<text transform="matrix(1 0 0 1 328.0402 94.063)" class="st20 st14 st15">E 10th St</text>
		<text transform="matrix(1 0 0 1 328.0402 94.063)" class="st20 st14 st15">E 10th St</text>
	</g>
	<g>
		<text transform="matrix(1 0 0 1 212.1056 409.6262)" class="st20 st14 st15">W 1st St</text>
		<text transform="matrix(1 0 0 1 212.1056 409.6262)" class="st20 st14 st15">W 1st St</text>
	</g>
	<g>
		<text transform="matrix(1 0 0 1 211.2478 226.5251)" class="st20 st14 st15">W Kirkwood Ave</text>
		<text transform="matrix(1 0 0 1 211.2478 226.5251)" class="st20 st14 st15">W Kirkwood Ave</text>
	</g>
	<g>
		<text transform="matrix(1 0 0 1 210.4562 200.5743)" class="st20 st14 st15">W 6th St</text>
		<text transform="matrix(1 0 0 1 210.4562 200.5743)" class="st20 st14 st15">W 6th St</text>
	</g>
	<g>
		<text transform="matrix(1 0 0 1 512.4115 282.3551)" class="st20 st14 st15">E 3rd St</text>
		<text transform="matrix(1 0 0 1 512.4115 282.3551)" class="st20 st14 st15">E 3rd St</text>
	</g>
	<g>
		<text transform="matrix(1 0 0 1 513.0199 366.6006)" class="st20 st14 st15">E 2nd St</text>
		<text transform="matrix(1 0 0 1 513.0199 366.6006)" class="st20 st14 st15">E 2nd St</text>
	</g>
	<g>
		<text transform="matrix(0 1 -1 0 183.917 107.6705)" class="st20 st14 st15">N Morton St</text>
		<text transform="matrix(0 1 -1 0 183.917 107.6705)" class="st20 st14 st15">N Morton St</text>
	</g>
	<g>
		<text transform="matrix(0 1 -1 0 218.7549 107.2907)" class="st20 st14 st15">N College Ave</text>
		<text transform="matrix(0 1 -1 0 218.7549 107.2907)" class="st20 st14 st15">N College Ave</text>
	</g>
	<g>
	</g>
	<g>
		<text transform="matrix(0 1 -1 0 244.458 107.6707)" class="st20 st14 st15">N Walnut St</text>
		<text transform="matrix(0 1 -1 0 244.458 107.6707)" class="st20 st14 st15">N Walnut St</text>
	</g>
	<g>
		<text transform="matrix(0 1 -1 0 269.3896 107.2909)" class="st20 st14 st15">N Washington St</text>
		<text transform="matrix(0 1 -1 0 269.3896 107.2909)" class="st20 st14 st15">N Washington St</text>
	</g>
	<g>
		<text transform="matrix(0 1 -1 0 293.2705 107.2907)" class="st20 st14 st15">N Lincoln St</text>
		<text transform="matrix(0 1 -1 0 293.2705 107.2907)" class="st20 st14 st15">N Lincoln St</text>
	</g>
	<g>
		<text transform="matrix(0 1 -1 0 319.1104 107.2907)" class="st20 st14 st15">N Grant St</text>
		<text transform="matrix(0 1 -1 0 319.1104 107.2907)" class="st20 st14 st15">N Grant St</text>
	</g>
	<g>
		<text transform="matrix(1 0 0 1 328.2568 200.3941)" class="st20 st14 st15">E 6th St</text>
		<text transform="matrix(1 0 0 1 328.2568 200.3941)" class="st20 st14 st15">E 6th St</text>
	</g>
	<g>
		<text transform="matrix(0 1 -1 0 348.9814 107.2904)" class="st20 st14 st15">N Dunn St</text>
		<text transform="matrix(0 1 -1 0 348.9814 107.2904)" class="st20 st14 st15">N Dunn St</text>
	</g>
	<g>
		<text transform="matrix(0 1 -1 0 396.8691 118.3261)" class="st20 st14 st15">N Indiana Ave</text>
		<text transform="matrix(0 1 -1 0 396.8691 118.3261)" class="st20 st14 st15">N Indiana Ave</text>
	</g>
	<g>
		<text transform="matrix(0.9997 -2.513000e-02 2.513000e-02 0.9997 512.4118 313.7693)" class="st20 st14 st15">Atwater Ave</text>
		<text transform="matrix(0.9997 -2.513000e-02 2.513000e-02 0.9997 512.4118 313.7693)" class="st20 st14 st15">Atwater Ave</text>
	</g>
	<g>
		<text transform="matrix(1 0 0 1 512.4117 335.9138)" class="st20 st14 st15">E Hunter Ave</text>
		<text transform="matrix(1 0 0 1 512.4117 335.9138)" class="st20 st14 st15">E Hunter Ave</text>
	</g>
	<g>
		<text transform="matrix(1 0 0 1 513.0198 409.6258)" class="st20 st14 st15">E 1st St</text>
		<text transform="matrix(1 0 0 1 513.0198 409.6258)" class="st20 st14 st15">E 1st St</text>
	</g>
	<g>
		<text transform="matrix(1 0 0 1 513.0201 387.1685)" class="st20 st14 st15">E University St</text>
		<text transform="matrix(1 0 0 1 513.0201 387.1685)" class="st20 st14 st15">E University St</text>
	</g>
	<g>
		<text transform="matrix(1 0 0 1 498.3281 447.1022)" class="st20 st14 st15">E Maxwell Ln</text>
		<text transform="matrix(1 0 0 1 498.3281 447.1022)" class="st20 st14 st15">E Maxwell Ln</text>
	</g>
	<g>
		<text transform="matrix(1 0 0 1 199.3634 564.3483)" class="st20 st14 st15">W Grimes Ln</text>
		<text transform="matrix(1 0 0 1 199.3634 564.3483)" class="st20 st14 st15">W Grimes Ln</text>
	</g>
	<g>
		<text transform="matrix(1 0 0 1 398.9534 563.234)" class="st20 st14 st15">E Grimes Ln</text>
		<text transform="matrix(1 0 0 1 398.9534 563.234)" class="st20 st14 st15">E Grimes Ln</text>
	</g>
	<g>
		<text transform="matrix(1 0 0 1 211.524 502.7706)" class="st20 st14 st15">W Allen St</text>
		<text transform="matrix(1 0 0 1 211.524 502.7706)" class="st20 st14 st15">W Allen St</text>
	</g>
	<g>
		<text transform="matrix(1 0 0 1 328.04 502.7701)" class="st20 st14 st15">E Allen St</text>
		<text transform="matrix(1 0 0 1 328.04 502.7701)" class="st20 st14 st15">E Allen St</text>
	</g>
	<g>
	</g>
	<g>
		<text transform="matrix(1.299000e-02 0.9999 -0.9999 1.299000e-02 191.4727 326.5057)" class="st20 st14 st15">B-Line Trail</text>
		<text transform="matrix(1.299000e-02 0.9999 -0.9999 1.299000e-02 191.4727 326.5057)" class="st20 st14 st15">B-Line Trail</text>
	</g>
	<g>
		<text transform="matrix(0 1 -1 0 184.626 519.46)" class="st20 st14 st15">S Morton St</text>
		<text transform="matrix(0 1 -1 0 184.626 519.46)" class="st20 st14 st15">S Morton St</text>
	</g>
	<g>
		<text transform="matrix(1.299000e-02 0.9999 -0.9999 1.299000e-02 144.6436 411.7036)" class="st20 st14 st15">S Rogers St</text>
		<text transform="matrix(1.299000e-02 0.9999 -0.9999 1.299000e-02 144.6436 411.7036)" class="st20 st14 st15">S Rogers St</text>
	</g>
	<path id="SVGID_x5F_1_x5F_" class="st11" d="M509.5,447.1c0.4,3.1,0.7,5.8,0.8,7.8c0.3,3.2,0.3,4.1,0.2,5.3
		c-0.4,2.8-1.4,4.2-2.4,6.3c-1.3,2.7-0.7,3.2-2,10.7c-1.5,8.6-2.2,8.3-2.4,12.4c-0.1,3.6,0.5,3.3,0.8,9.8c0.3,5.7-0.2,5.9,0.2,10.5
		c0.4,4.8,1.2,8.5,1.7,10.7c0.8,3.5,1.7,6.5,2.5,8.8"/>
	<text>	<textPath  xlink:href="#SVGID_x5F_1_x5F_" startOffset="17.882%">
<tspan  class="st20 st14 st15"> S Hawthorne Dr</tspan>	</textPath>
</text>
	<path id="SVGID_x5F_00000024696508995088908490000002485656988043570055_x5F_" class="st11" d="M534.9,446.8
		c0.3,2.6,0.4,4.8,0.3,6.5c0,0.5-0.3,4.1-1.3,7.9c-0.8,2.8-1.4,3.8-2.2,5.8c-1,2.8-1.2,4.6-1.9,11.3c-1.4,14.1-2.1,21.1-2.2,21.7
		c-0.2,0.9-0.5,2.5-0.5,4.8c0,2.6,0.5,4,1,6.8c0.6,3.7,0.3,4.5,0.7,7.3c0.3,2.5,1.2,6.2,3.5,10.5"/>
	<text>	<textPath  xlink:href="#SVGID_x5F_00000024696508995088908490000002485656988043570055_x5F_" startOffset="24.3056%">
<tspan  class="st20 st14 st15">S Ballantine Rd</tspan>	</textPath>
</text>
	<path id="SVGID_x5F_00000041285429937205666510000003733259640295040686_x5F_" class="st11" d="M469.3,499.5
		c1.4-0.1,3.5-0.2,6.1-0.3c4.4-0.1,5.9-0.1,9.5-0.1c6.7-0.1,6.9-0.4,12.8-0.5c4.2-0.1,3.7,0.1,10,0.1c7.3,0,8-0.2,14.5-0.1
		c5,0,7.7,0.1,11.5,0.4c6.3,0.6,11,1.5,12,1.7c6,1.3,6,1.9,12.3,3.1c3.2,0.6,4.3,0.6,6.4,1.5c3.4,1.3,4,2.5,7.2,3.9
		c0.7,0.3,1.9,0.8,7.7,1.9c5.6,1.1,6.4,1,10.4,1.7c8.4,1.6,8,2.4,11.5,2.4c2.5,0,5.4-0.9,11.2-2.7c6.4-2,8.5-3.2,9.2-3.6
		c2.3-1.4,3.7-2.7,6.1-5.1c2-1.9,4.6-4.5,7.3-8.5c1.7-2.5,3.2-4.8,4.3-8.2c0.6-2,0.8-3.6,1.1-6.6c0.5-4.7,0.3-8.3,0.3-9.4
		c-0.2-4.4-0.8-5.2-1.5-11.1c-0.5-4.3-0.7-7.7-0.8-10.1c-0.3-6.8,0.1-8.8-0.5-15.2c-0.4-4.1-0.7-5.6-1.2-7c-1.1-3.2-2-3.5-3.5-7.2
		c-1.4-3.4-1.9-6.2-2.1-7.9c-0.5-3-0.6-5.7-0.6-7.8c0.1-41.4,0.2-82.8,0.3-124.3"/>
	<text>	<textPath  xlink:href="#SVGID_x5F_00000041285429937205666510000003733259640295040686_x5F_" startOffset="23.0469%">
<tspan  class="st20 st14 st15">E Southdowns Dr</tspan>	</textPath>
</text>
	<path id="SVGID_x5F_00000165949642400080277000000014952965915986209934_x5F_" class="st11" d="M597.1,484.7
		c2.2,1.6,3.7,3.2,4.7,4.4c3.7,4.4,5.1,9,5.7,11.3c0.6,2.2,0.9,4.4,1.1,5.3c0.2,1.6,0.5,4.4,0.5,7.8c-0.1,3.8-0.6,6.6-1.2,9.8
		c-0.8,4.5-1.1,3.8-1.5,6.9c-0.6,4.3-0.2,5.8-1.5,7.1c-1.2,1.2-3,1.2-5.4,1.2c-2,0-3.3-0.3-6.2-0.9c-2.5-0.5,7.4,1.5-8.3-1.7
		c-5.9-1.2-6.9-1.3-8.7-2c-1.8-0.6-0.8-0.4-7.1-3c-2.1-0.9-3.5-1.4-5.3-2.6c-0.8-0.5-1.9-1.2-3.2-2.4c-2.6-2.5-3.7-5.1-4.1-6.1
		c-1.5-3.7-1.1-6.5-1.1-10.6c0-7.4-1.2-7.2-1.7-15.6c-0.4-7.1,0.2-12.6,0.6-15.6c0.6-5.6,2-13.1,5-21.7
		c-0.4-59.2-0.8-118.4-1.1-177.6"/>
	<text>	<textPath  xlink:href="#SVGID_x5F_00000165949642400080277000000014952965915986209934_x5F_" startOffset="10.3125%">
<tspan  class="st20 st14 st15">Eagleson Ave </tspan>	</textPath>
</text>
	<path id="SVGID_x5F_00000016046763821638493530000003818850304862061998_x5F_" class="st11" d="M558.7,279.5
		c0.4,59.2,0.8,118.4,1.1,177.6c-3,8.6-4.4,16.1-5,21.7c-0.3,3-0.9,8.4-0.6,15.6c0.4,8.3,1.7,8.2,1.7,15.6c0,4.1-0.4,6.9,1.1,10.6
		c0.4,1,1.5,3.7,4.1,6.1c1.2,1.2,2.4,1.9,3.2,2.4c1.8,1.1,3.2,1.7,5.3,2.6c6.2,2.6,5.3,2.4,7.1,3c1.8,0.6,2.8,0.8,8.7,2
		c15.7,3.1,5.8,1.1,8.3,1.7c2.8,0.6,4.1,0.9,6.2,0.9c2.4,0,4.2,0,5.4-1.2c1.3-1.3,0.9-2.8,1.5-7.1c0.4-3.1,0.7-2.4,1.5-6.9
		c0.6-3.2,1.1-6,1.2-9.8c0.1-3.4-0.2-6.2-0.5-7.8c-0.1-0.9-0.4-3-1.1-5.3c-0.6-2.3-2-6.8-5.7-11.3c-1-1.2-2.5-2.8-4.7-4.4"/>
	<text>	<textPath  xlink:href="#SVGID_x5F_00000016046763821638493530000003818850304862061998_x5F_" startOffset="4.2295%">
<tspan  class="st20 st14 st15">S Highland Ave</tspan>	</textPath>
</text>
	<path id="SVGID_x5F_00000094607056544116188530000008426395065737662105_x5F_" class="st11" d="M581.6,407.2
		c6.9-0.2,12,1.1,14.1,1.9c2.7,1,5.1,2.6,5.1,2.6c0.2,0.1,0.4,0.2,0.5,0.3c2.7,1.7,4.3,3.5,6.6,6c1.4,1.6,3.6,3.9,5.8,7.3
		c1.1,1.7,3,4.7,4.6,9.1c0.6,1.6,1.4,4.1,1.9,7.2c0.9,5.2,0.6,9.2,0.6,10.1c-0.1,0.6-0.5,3-1.4,7.7c-1,5.3-1.2,6.4-1.7,7.9
		c-0.9,2.6-1.8,4.4-2.5,5.8c-1,1.9-2.2,4.3-4.3,6.8c-2.4,3-4.6,5.7-8.4,6.9c-2.4,0.7-4.6,0.6-5.9,0.4"/>
	<text>	<textPath  xlink:href="#SVGID_x5F_00000094607056544116188530000008426395065737662105_x5F_" startOffset="42.3636%">
<tspan  class="st20 st14 st15">S Sheridan Rd</tspan>	</textPath>
</text>
	<path id="SVGID_x5F_00000119804713354170281450000014754120560001229207_x5F_" class="st11" d="M381.7,510c2.7-1.3,5-2.2,6.7-2.8
		c3.4-1.3,4.9-1.5,6.5-3c0.5-0.5,1.1-1.1,2.2-1.9c0.8-0.6,1.6-1,3-1.7c1.5-0.8,1.6-0.8,3.2-1.6c0.9-0.4,1.8-0.9,2.9-1.6
		c1.6-1,2.3-1.6,3-2c2-1.3,3.8-1.5,6.3-2c4.4-0.9,3.4-1.2,10.2-3c3.8-1,6.6-1.5,9.2-2c6.7-1.3,10-1.9,13.9-1.9
		c2.6,0,1.4,0.3,8.6,0.8c6.3,0.5,7.6,0.3,11.1,1c2.5,0.5,2.8,0.7,6.2,1.4c1.9,0.4,4,0.8,6.8,1c2.9,0.3,5.1,0.2,6.6,0.2
		c1.4,0,3.3-0.1,7.2-0.4c3.8-0.2,5-0.4,7.4-0.4c2,0,3.3,0,4.2,0c1.8,0.1,2.6,0.2,4.2,0.3c2.1,0.2,3.5,0.2,6.3,0.3
		c3.9,0.1,5.8,0.1,7.8,0c5.8-0.4,6-1.4,10.9-1.4c3.3,0,5.5,0.6,6.8,1c1.6,0.5,1.7,0.8,3,1.2c3.1,1,5.4,0.3,7.8,0.4
		c2.2,0.1,5.2,0.4,8.9,1.5"/>
	<text>	<textPath  xlink:href="#SVGID_x5F_00000119804713354170281450000014754120560001229207_x5F_" startOffset="22.1281%">
<tspan  class="st20 st14 st15">Sheridan Creek</tspan>	</textPath>
</text>
	<g>
		<text transform="matrix(1.299000e-02 0.9999 -0.9999 1.299000e-02 627.2325 363.8641)" class="st20 st14 st15">S Mitchell St</text>
		<text transform="matrix(1.299000e-02 0.9999 -0.9999 1.299000e-02 627.2325 363.8641)" class="st20 st14 st15">S Mitchell St</text>
	</g>
	<g>
		<text transform="matrix(1.299000e-02 0.9999 -0.9999 1.299000e-02 481.5801 448.4553)" class="st20 st14 st15">S Manor Rd</text>
		<text transform="matrix(1.299000e-02 0.9999 -0.9999 1.299000e-02 481.5801 448.4553)" class="st20 st14 st15">S Manor Rd</text>
	</g>
	<g>
		<text transform="matrix(1.299000e-02 0.9999 -0.9999 1.299000e-02 460.9659 427.0064)" class="st20 st14 st15">S Woodlawn Ave</text>
		<text transform="matrix(1.299000e-02 0.9999 -0.9999 1.299000e-02 460.9659 427.0064)" class="st20 st14 st15">S Woodlawn Ave</text>
	</g>
	<g>
		<text transform="matrix(1.299000e-02 0.9999 -0.9999 1.299000e-02 376.1368 460.3784)" class="st20 st14 st15">S Henderson St</text>
		<text transform="matrix(1.299000e-02 0.9999 -0.9999 1.299000e-02 376.1368 460.3784)" class="st20 st14 st15">S Henderson St</text>
	</g>
	<g>
		<text transform="matrix(1.299000e-02 0.9999 -0.9999 1.299000e-02 357.1114 513.3557)" class="st20 st14 st15">S Dunn St</text>
		<text transform="matrix(1.299000e-02 0.9999 -0.9999 1.299000e-02 357.1114 513.3557)" class="st20 st14 st15">S Dunn St</text>
	</g>
	<g>
		<text transform="matrix(1.299000e-02 0.9999 -0.9999 1.299000e-02 335.6827 513.2799)" class="st20 st14 st15">S Palmer Ave</text>
		<text transform="matrix(1.299000e-02 0.9999 -0.9999 1.299000e-02 335.6827 513.2799)" class="st20 st14 st15">S Palmer Ave</text>
	</g>
	<g>
		<text transform="matrix(1.299000e-02 0.9999 -0.9999 1.299000e-02 312.5674 513.2792)" class="st20 st14 st15">S Grant St</text>
		<text transform="matrix(1.299000e-02 0.9999 -0.9999 1.299000e-02 312.5674 513.2792)" class="st20 st14 st15">S Grant St</text>
	</g>
	<g>
		<text transform="matrix(1.299000e-02 0.9999 -0.9999 1.299000e-02 293.5499 513.2786)" class="st20 st14 st15">S Lincoln St</text>
		<text transform="matrix(1.299000e-02 0.9999 -0.9999 1.299000e-02 293.5499 513.2786)" class="st20 st14 st15">S Lincoln St</text>
	</g>
	<g>
		<text transform="matrix(1.299000e-02 0.9999 -0.9999 1.299000e-02 268.8829 509.4838)" class="st20 st14 st15">S Washington St</text>
		<text transform="matrix(1.299000e-02 0.9999 -0.9999 1.299000e-02 268.8829 509.4838)" class="st20 st14 st15">S Washington St</text>
	</g>
	<g>
		<text transform="matrix(1.299000e-02 0.9999 -0.9999 1.299000e-02 244.4581 514.7953)" class="st20 st14 st15">S Walnut St</text>
		<text transform="matrix(1.299000e-02 0.9999 -0.9999 1.299000e-02 244.4581 514.7953)" class="st20 st14 st15">S Walnut St</text>
	</g>
	<g>
		<text transform="matrix(1.299000e-02 0.9999 -0.9999 1.299000e-02 143.671 108.2782)" class="st20 st14 st15">N Rogers St</text>
		<text transform="matrix(1.299000e-02 0.9999 -0.9999 1.299000e-02 143.671 108.2782)" class="st20 st14 st15">N Rogers St</text>
	</g>
	<path id="SVGID_x5F_00000046330541674395408520000001933880167667482556_x5F_" class="st11" d="M594,162.5c3.7,0.1,6.8-0.1,8.9-0.3
		c3.9-0.3,5-0.7,6.8,0c2.1,0.8,2.1,1.7,5.8,3.9c2.4,1.4,3.6,2.2,5.2,2.4c1.4,0.2,1.7-0.2,6.3-1.3c1.1-0.3,3.4-0.8,6-1.3
		c2.6-0.5,3.8-0.7,5.2-0.8c2.4-0.1,3,0.3,7.1,0.8c5,0.6,5.3,0.2,8.1,0.8c1.8,0.4,4.1,1,6.8,2.4"/>
	<text>	<textPath  xlink:href="#SVGID_x5F_00000046330541674395408520000001933880167667482556_x5F_" startOffset="28.1914%">
<tspan  class="st20 st14 st15">E 7th St</tspan>	</textPath>
</text>
	<g>
		<text transform="matrix(1 0 0 1 540.9665 489.8418)" class="st20 st14 st15">E Sheridan Rd</text>
		<text transform="matrix(1 0 0 1 540.9665 489.8418)" class="st20 st14 st15">E Sheridan Rd</text>
	</g>
	<g>
		<text transform="matrix(1 0 0 1 211.524 176.3431)" class="st20 st14 st15">W 7th St</text>
		<text transform="matrix(1 0 0 1 211.524 176.3431)" class="st20 st14 st15">W 7th St</text>
	</g>
	<g>
		<text transform="matrix(1.299000e-02 0.9999 -0.9999 1.299000e-02 581.5831 312.0971)" class="st20 st14 st15">Eagleson Ave</text>
		<text transform="matrix(1.299000e-02 0.9999 -0.9999 1.299000e-02 581.5831 312.0971)" class="st20 st14 st15">Eagleson Ave</text>
	</g>
	<path id="SVGID_x5F_00000002369341852563680370000004006257376293952429_x5F_" class="st11" d="M150,460c27.9,0,38.6,0.3,42.7,0.5
		c1.4,0.1,4.7,0.4,9.2,0.3c1.1,0,1.9-0.1,2.5-0.1c1.3-0.1,2.1-0.2,2.4-0.2c2.9-0.2,4.3,0.9,8.1,1c2,0.1,3.3,0.1,4.4-0.8
		c0.6-0.5,0.9-1.2,1.6-2.7c0.4-0.8,0.7-1.4,1-2.4c0.4-1.3,0.7-3.2,0.5-4c0,0,0-0.1,0-0.1c0.1,0,0.7,2,2.1,3.4
		c0.6,0.6,1.2,0.9,2.3,1.4c1.6,0.8,2.3,0.9,4.4,1.6c1.7,0.6,2.9,1.1,4.6,1.8c1.8,0.8,2.7,1.2,3.8,1.8c1.1,0.6,2,1.3,3.7,2.6
		c2.9,2.2,3.5,2.9,3.8,3.3c0.1,0.2,0.5,0.7,1.1,1.6c0.2,0.3,0.5,0.8,0.9,1.2"/>
	<text>	<textPath  xlink:href="#SVGID_x5F_00000002369341852563680370000004006257376293952429_x5F_" startOffset="4.2249%">
<tspan  class="st20 st14 st15">W Dodds St</tspan>	</textPath>
</text>
</g>
<g id="mark_introduction">
	<line id="Bike_Route" class="st21" x1="51.7" y1="43" x2="76.5" y2="43"/>
	<text transform="matrix(1 0 0 1 83.8813 45.9731)" class="st14 st22">Cycling route</text>
	<line id="Street" class="st23" x1="181.2" y1="43" x2="206.8" y2="43"/>
	<text transform="matrix(1 0 0 1 214.2773 45.9174)" class="st14 st22">Street</text>
	<text transform="matrix(1 0 0 1 641.6592 572.1939)" class="st24 st14 st25">500 ft</text>
	<line class="st26" x1="683.1" y1="564.4" x2="683.3" y2="572.2"/>
	<line class="st26" x1="730" y1="564.4" x2="730" y2="572.1"/>
	<line class="st26" x1="682.3" y1="571.6" x2="731" y2="571.7"/>
	<rect id="arear" x="366.5" y="34.1" class="st2" width="22.4" height="17.8"/>
	<text transform="matrix(1 0 0 1 396.7815 46.1696)" class="st14 st22">Area</text>
	<circle class="st27" cx="461" cy="43" r="10"/>
	<text transform="matrix(1 0 0 1 476.0675 45.9175)" class="st14 st22">Tour spot &amp;  Check point</text>
	<line id="Bike_Route_00000000923791448901402120000017622039538425084837_" class="st28" x1="276.6" y1="43" x2="301.5" y2="43"/>
	<text transform="matrix(1 0 0 1 307.9417 45.973)" class="st14 st22">Creek</text>
	<rect x="489.7" y="38.2" class="st11" width="3.1" height="12.2"/>
	
		<image style="overflow:visible;" width="380" height="385" xlink:href="pic/north-compass-icon-19.png"  transform="matrix(0.1707 0 0 0.1707 654.1444 17.6068)">
	</image>
</g>
</svg>
